<svg xmlns="http://www.w3.org/2000/svg">
<defs>
<font
       horiz-adv-x="600"
       id="font2"
       inkscape:label="font 1">
      <font-face
         units-per-em="1000"
         ascent="750"
         cap-height="600"
         x-height="400"
         descent="200"
         id="font-face2"
         font-family="Noxmore Standard Galactic" />
      <missing-glyph
         d="M0,0h1000v1024h-1000z"
         id="missing-glyph2" />
      <glyph
         glyph-name=""
         unicode="a"
         id="glyph2"
         d="M 62.5,125 H 125 A 125,125 0 0 1 250,250 V 687.5 A 62.5,62.5 0 0 0 312.5,750 62.5,62.5 0 0 0 375,687.5 62.5,62.5 0 0 1 437.5,625 62.5,62.5 0 0 1 500,687.5 V 750 A 125,125 0 0 1 375,875 H 250 A 125,125 0 0 1 125,750 V 312.5 A 62.5,62.5 0 0 0 62.5,250 62.5,62.5 0 0 1 0,187.5 62.5,62.5 0 0 1 62.5,125 Z" />
      <glyph
         glyph-name=""
         unicode="b"
         id="glyph3"
         d="M 62.5,125 H 500 L 334.44522,566.47943 A 344.66674,344.66674 0 0 0 312.5,687.5 v 125 A 62.5,62.5 0 0 1 250,875 62.5,62.5 0 0 1 187.5,812.5 V 625 A 324.5364,324.5364 0 0 1 210.71192,504.47021 L 289.28808,308.02979 A 42.31456,42.31456 0 0 0 250,250 H 62.5 A 62.5,62.5 0 0 1 0,187.5 62.5,62.5 0 0 1 62.5,125 Z" />
      <glyph
         glyph-name=""
         unicode="c"
         id="glyph4"
         d="M 0,812.5 A 62.5,62.5 0 0 1 62.5,750 62.5,62.5 0 0 1 125,812.5 62.5,62.5 0 0 1 62.5,875 62.5,62.5 0 0 1 0,812.5 Z M 0,625 V 375 a 38.627124,38.627124 0 0 1 55.901699,-34.54915 l 13.196602,6.5983 A 38.627124,38.627124 0 0 0 125,312.5 v -125 A 62.5,62.5 0 0 1 187.5,125 62.5,62.5 0 0 1 250,187.5 V 500 a 38.627124,38.627124 0 0 1 -55.9017,34.54915 l -13.1966,-6.5983 A 38.627124,38.627124 0 0 0 125,562.5 V 625 A 62.5,62.5 0 0 1 62.5,687.5 62.5,62.5 0 0 1 0,625 Z"
         horiz-adv-x="400" />
      <glyph
         glyph-name=""
         unicode="d"
         id="glyph7"
         d="M 0,812.5 A 62.5,62.5 0 0 1 62.5,750 h 375 A 62.5,62.5 0 0 1 500,812.5 62.5,62.5 0 0 1 437.5,875 H 62.5 A 62.5,62.5 0 0 1 0,812.5 Z M 0,625 A 112.76548,112.76548 0 0 1 52.999894,529.37507 L 447.00011,283.12493 A 34.640478,34.640478 0 0 1 500,312.5 112.76548,112.76548 0 0 1 447.00011,408.12493 L 52.999894,654.37507 A 34.640478,34.640478 0 0 1 0,625 Z" />
      <glyph
         glyph-name=""
         unicode="e"
         id="glyph10"
         d="M 62.5,875 A 62.5,62.5 0 0 1 0,812.5 V 250 A 125,125 0 0 1 125,125 H 437.5 A 62.5,62.5 0 0 1 500,187.5 62.5,62.5 0 0 1 437.5,250 h -250 A 62.5,62.5 0 0 0 125,312.5 v 500 A 62.5,62.5 0 0 1 62.5,875 Z m 375,0 A 62.5,62.5 0 0 1 375,812.5 62.5,62.5 0 0 1 437.5,750 62.5,62.5 0 0 1 500,812.5 62.5,62.5 0 0 1 437.5,875 Z" />
      <glyph
         glyph-name=""
         unicode="f"
         id="glyph11"
         d="M 0,812.5 A 62.5,62.5 0 0 1 62.5,750 h 500 A 62.5,62.5 0 0 1 625,812.5 62.5,62.5 0 0 1 562.5,875 H 62.5 A 62.5,62.5 0 0 1 0,812.5 Z M 0,625 A 62.5,62.5 0 0 1 62.5,562.5 62.5,62.5 0 0 1 125,625 62.5,62.5 0 0 1 62.5,687.5 62.5,62.5 0 0 1 0,625 Z m 250,0 A 62.5,62.5 0 0 1 312.5,562.5 62.5,62.5 0 0 1 375,625 62.5,62.5 0 0 1 312.5,687.5 62.5,62.5 0 0 1 250,625 Z m 250,0 A 62.5,62.5 0 0 1 562.5,562.5 62.5,62.5 0 0 1 625,625 62.5,62.5 0 0 1 562.5,687.5 62.5,62.5 0 0 1 500,625 Z"
         horiz-adv-x="800" />
      <glyph
         glyph-name=""
         unicode="g"
         id="glyph12"
         d="m 62.5,625 h 125 a 62.5,62.5 0 0 1 62.5,62.5 v 125 A 62.5,62.5 0 0 0 312.5,875 62.5,62.5 0 0 0 375,812.5 v -625 A 62.5,62.5 0 0 0 312.5,125 62.5,62.5 0 0 0 250,187.5 v 250 A 62.5,62.5 0 0 1 187.5,500 H 62.5 A 62.5,62.5 0 0 0 0,562.5 62.5,62.5 0 0 0 62.5,625 Z"
         horiz-adv-x="500" />
      <glyph
         glyph-name=""
         unicode="h"
         id="glyph13"
         d="M 0,812.5 A 62.5,62.5 0 0 1 62.5,750 h 375 A 62.5,62.5 0 0 1 500,812.5 62.5,62.5 0 0 1 437.5,875 H 62.5 A 62.5,62.5 0 0 1 0,812.5 Z m 0,-250 A 62.5,62.5 0 0 1 62.5,500 H 125 a 62.5,62.5 0 0 0 62.5,-62.5 v -250 A 62.5,62.5 0 0 1 250,125 a 62.5,62.5 0 0 1 62.5,62.5 v 250 A 62.5,62.5 0 0 0 375,500 h 62.5 A 62.5,62.5 0 0 1 500,562.5 62.5,62.5 0 0 1 437.5,625 H 62.5 A 62.5,62.5 0 0 1 0,562.5 Z" />
      <glyph
         glyph-name=""
         unicode="i"
         id="glyph14"
         d="m 0,812.5 v -220 A 62.5,62.5 0 0 1 62.5,530 62.5,62.5 0 0 1 125,592.5 v 220 A 62.5,62.5 0 0 1 62.5,875 62.5,62.5 0 0 1 0,812.5 Z M 0,403 V 187.5 A 62.5,62.5 0 0 1 62.5,125 62.5,62.5 0 0 1 125,187.5 V 403 A 62.5,62.5 0 0 1 62.5,465.5 62.5,62.5 0 0 1 0,403 Z"
         horiz-adv-x="200" />
      <glyph
         glyph-name=""
         unicode="j"
         id="glyph15"
         d="M 62.5,875 A 62.5,62.5 0 0 1 0,812.5 62.5,62.5 0 0 1 62.5,750 62.5,62.5 0 0 1 125,812.5 62.5,62.5 0 0 1 62.5,875 Z m 0,-312.5 A 62.5,62.5 0 0 1 0,500 62.5,62.5 0 0 1 62.5,437.5 62.5,62.5 0 0 1 125,500 62.5,62.5 0 0 1 62.5,562.5 Z M 62.5,250 A 62.5,62.5 0 0 1 0,187.5 62.5,62.5 0 0 1 62.5,125 62.5,62.5 0 0 1 125,187.5 62.5,62.5 0 0 1 62.5,250 Z"
         horiz-adv-x="200" />
      <glyph
         glyph-name=""
         unicode="k"
         id="glyph16"
         d="m 187.5,812.5 v -625 A 62.5,62.5 0 0 1 250,125 a 62.5,62.5 0 0 1 62.5,62.5 v 625 A 62.5,62.5 0 0 1 250,875 62.5,62.5 0 0 1 187.5,812.5 Z M 0,500 A 62.5,62.5 0 0 1 62.5,437.5 62.5,62.5 0 0 1 125,500 62.5,62.5 0 0 1 62.5,562.5 62.5,62.5 0 0 1 0,500 Z m 375,0 A 62.5,62.5 0 0 1 437.5,437.5 62.5,62.5 0 0 1 500,500 62.5,62.5 0 0 1 437.5,562.5 62.5,62.5 0 0 1 375,500 Z" />
      <glyph
         glyph-name=""
         unicode="l"
         id="glyph17"
         d="m 0,812.5 v -625 A 62.5,62.5 0 0 1 62.5,125 62.5,62.5 0 0 1 125,187.5 v 625 A 62.5,62.5 0 0 1 62.5,875 62.5,62.5 0 0 1 0,812.5 Z m 187.5,-125 A 62.5,62.5 0 0 1 250,625 62.5,62.5 0 0 1 312.5,687.5 62.5,62.5 0 0 1 250,750 62.5,62.5 0 0 1 187.5,687.5 Z m 0,-375 A 62.5,62.5 0 0 1 250,250 62.5,62.5 0 0 1 312.5,312.5 62.5,62.5 0 0 1 250,375 62.5,62.5 0 0 1 187.5,312.5 Z"
         horiz-adv-x="400" />
      <glyph
         glyph-name=""
         unicode="m"
         id="glyph18"
         d="M 437.5,875 A 62.5,62.5 0 0 0 500,812.5 V 250 A 125,125 0 0 0 375,125 H 62.5 A 62.5,62.5 0 0 0 0,187.5 62.5,62.5 0 0 0 62.5,250 h 250 a 62.5,62.5 0 0 1 62.5,62.5 v 500 a 62.5,62.5 0 0 0 62.5,62.5 z m -375,0 A 62.5,62.5 0 0 0 125,812.5 62.5,62.5 0 0 0 62.5,750 62.5,62.5 0 0 0 0,812.5 62.5,62.5 0 0 0 62.5,875 Z" />
      <glyph
         glyph-name=""
         unicode="n"
         id="glyph19"
         d="M 0,812.5 A 62.5,62.5 0 0 1 62.5,750 62.5,62.5 0 0 1 125,812.5 62.5,62.5 0 0 1 62.5,875 62.5,62.5 0 0 1 0,812.5 Z m 250,0 v -125 A 470.69555,470.69555 0 0 0 187.98263,453.96961 L 31.008684,179.2652 A 36.270158,36.270158 0 0 1 62.5,125 116.78232,116.78232 0 0 1 159.66876,177.00314 L 270.99371,343.99057 A 619.27043,619.27043 0 0 1 375,687.5 v 125 A 62.5,62.5 0 0 1 312.5,875 62.5,62.5 0 0 1 250,812.5 Z"
         horiz-adv-x="500" />
      <glyph
         glyph-name=""
         unicode="o"
         id="glyph20"
         d="m 62.5,875 h 375 A 62.5,62.5 0 0 0 500,812.5 v -125 A 187.5,187.5 0 0 0 462.5,575 l -300,-400 a 125,125 0 0 0 -100,-50 31.25,31.25 0 0 0 -25,50 l 300,400 A 187.5,187.5 0 0 1 375,687.5 62.5,62.5 0 0 1 312.5,750 H 62.5 A 62.5,62.5 0 0 0 0,812.5 62.5,62.5 0 0 0 62.5,875 Z" />
      <glyph
         glyph-name=""
         unicode="p"
         id="glyph21"
         d="M 0,812.5 A 62.5,62.5 0 0 1 62.5,750 62.5,62.5 0 0 1 125,812.5 62.5,62.5 0 0 1 62.5,875 62.5,62.5 0 0 1 0,812.5 Z m 250,0 V 375 A 62.5,62.5 0 0 1 312.5,312.5 62.5,62.5 0 0 1 375,375 V 812.5 A 62.5,62.5 0 0 1 312.5,875 62.5,62.5 0 0 1 250,812.5 Z M 0,625 V 187.5 A 62.5,62.5 0 0 1 62.5,125 62.5,62.5 0 0 1 125,187.5 V 625 A 62.5,62.5 0 0 1 62.5,687.5 62.5,62.5 0 0 1 0,625 Z M 250,187.5 A 62.5,62.5 0 0 1 312.5,125 62.5,62.5 0 0 1 375,187.5 62.5,62.5 0 0 1 312.5,250 62.5,62.5 0 0 1 250,187.5 Z"
         horiz-adv-x="500" />
      <glyph
         glyph-name=""
         unicode="q"
         id="glyph22"
         d="M 250,812.5 A 62.5,62.5 0 0 1 312.5,750 62.5,62.5 0 0 1 375,812.5 62.5,62.5 0 0 1 312.5,875 62.5,62.5 0 0 1 250,812.5 Z M 0,562.5 A 62.5,62.5 0 0 1 62.5,500 h 375 A 62.5,62.5 0 0 0 500,437.5 v -125 A 62.5,62.5 0 0 0 437.5,250 H 62.5 A 62.5,62.5 0 0 1 0,187.5 62.5,62.5 0 0 1 62.5,125 H 500 A 125,125 0 0 1 625,250 V 500 A 125,125 0 0 1 500,625 H 62.5 A 62.5,62.5 0 0 1 0,562.5 Z"
         horiz-adv-x="750" />
      <glyph
         glyph-name=""
         unicode="r"
         id="glyph23"
         d="M 0,812.5 A 62.5,62.5 0 0 1 62.5,750 62.5,62.5 0 0 1 125,812.5 62.5,62.5 0 0 1 62.5,875 62.5,62.5 0 0 1 0,812.5 Z m 562.5,0 A 62.5,62.5 0 0 1 625,750 62.5,62.5 0 0 1 687.5,812.5 62.5,62.5 0 0 1 625,875 62.5,62.5 0 0 1 562.5,812.5 Z M 0,187.5 A 62.5,62.5 0 0 1 62.5,125 62.5,62.5 0 0 1 125,187.5 62.5,62.5 0 0 1 62.5,250 62.5,62.5 0 0 1 0,187.5 Z m 562.5,0 A 62.5,62.5 0 0 1 625,125 62.5,62.5 0 0 1 687.5,187.5 62.5,62.5 0 0 1 625,250 62.5,62.5 0 0 1 562.5,187.5 Z"
         horiz-adv-x="800" />
      <glyph
         glyph-name=""
         unicode="s"
         id="glyph24"
         d="M 0,812.5 V 500 A 125,125 0 0 1 125,375 h 62.5 A 62.5,62.5 0 0 0 250,312.5 v -125 A 62.5,62.5 0 0 1 312.5,125 62.5,62.5 0 0 1 375,187.5 V 375 A 125,125 0 0 1 250,500 H 187.5 A 62.5,62.5 0 0 0 125,562.5 v 250 A 62.5,62.5 0 0 1 62.5,875 62.5,62.5 0 0 1 0,812.5 Z"
         horiz-adv-x="500.00" />
      <glyph
         glyph-name=""
         unicode="t"
         id="glyph25"
         d="M 0,812.5 A 62.5,62.5 0 0 1 62.5,750 h 250 A 62.5,62.5 0 0 0 375,687.5 V 375 A 62.5,62.5 0 0 1 437.5,312.5 62.5,62.5 0 0 1 500,375 V 750 A 125,125 0 0 1 375,875 H 62.5 A 62.5,62.5 0 0 1 0,812.5 Z m 375,-625 A 62.5,62.5 0 0 1 437.5,125 62.5,62.5 0 0 1 500,187.5 62.5,62.5 0 0 1 437.5,250 62.5,62.5 0 0 1 375,187.5 Z" />
      <glyph
         glyph-name=""
         unicode="u"
         id="glyph26"
         d="m 62.5,312.5 h 500 A 62.5,62.5 0 0 1 625,375 62.5,62.5 0 0 1 562.5,437.5 H 62.5 A 62.5,62.5 0 0 1 0,375 62.5,62.5 0 0 1 62.5,312.5 Z M 187.5,500 A 62.5,62.5 0 0 1 250,562.5 62.5,62.5 0 0 1 187.5,625 62.5,62.5 0 0 1 125,562.5 62.5,62.5 0 0 1 187.5,500 Z m 250,0 A 62.5,62.5 0 0 1 500,562.5 62.5,62.5 0 0 1 437.5,625 62.5,62.5 0 0 1 375,562.5 62.5,62.5 0 0 1 437.5,500 Z"
         horiz-adv-x="750" />
      <glyph
         glyph-name=""
         unicode="v"
         id="glyph27"
         d="M 0,187.5 A 62.5,62.5 0 0 1 62.5,125 h 375 A 62.5,62.5 0 0 1 500,187.5 62.5,62.5 0 0 1 437.5,250 H 62.5 A 62.5,62.5 0 0 1 0,187.5 Z m 0,250 A 62.5,62.5 0 0 0 62.5,500 H 125 a 62.5,62.5 0 0 1 62.5,62.5 v 250 A 62.5,62.5 0 0 0 250,875 62.5,62.5 0 0 0 312.5,812.5 v -250 A 62.5,62.5 0 0 1 375,500 h 62.5 A 62.5,62.5 0 0 0 500,437.5 62.5,62.5 0 0 0 437.5,375 H 62.5 A 62.5,62.5 0 0 0 0,437.5 Z" />
      <glyph
         glyph-name=""
         unicode="w"
         id="glyph28"
         d="M 187.5,375 A 62.5,62.5 0 0 1 250,312.5 62.5,62.5 0 0 1 312.5,375 62.5,62.5 0 0 1 250,437.5 62.5,62.5 0 0 1 187.5,375 Z M 0,187.5 A 62.5,62.5 0 0 1 62.5,125 62.5,62.5 0 0 1 125,187.5 62.5,62.5 0 0 1 62.5,250 62.5,62.5 0 0 1 0,187.5 Z m 375,0 A 62.5,62.5 0 0 1 437.5,125 62.5,62.5 0 0 1 500,187.5 62.5,62.5 0 0 1 437.5,250 62.5,62.5 0 0 1 375,187.5 Z" />
      <glyph
         glyph-name=""
         unicode="x"
         id="glyph29"
         d="M 0,812.5 A 62.5,62.5 0 0 1 62.5,750 62.5,62.5 0 0 1 125,812.5 62.5,62.5 0 0 1 62.5,875 62.5,62.5 0 0 1 0,812.5 Z M 347.04915,819.0983 27.95085,180.9017 A 38.627124,38.627124 0 0 1 62.5,125 a 101.12712,101.12712 0 0 1 90.45085,55.9017 l 319.0983,638.1966 A 38.627124,38.627124 0 0 1 437.5,875 101.12712,101.12712 0 0 1 347.04915,819.0983 Z" />
      <glyph
         glyph-name=""
         unicode="y"
         id="glyph30"
         d="m 0,812.5 v -625 A 62.5,62.5 0 0 1 62.5,125 62.5,62.5 0 0 1 125,187.5 v 625 A 62.5,62.5 0 0 1 62.5,875 62.5,62.5 0 0 1 0,812.5 Z m 250,0 v -625 A 62.5,62.5 0 0 1 312.5,125 62.5,62.5 0 0 1 375,187.5 v 625 A 62.5,62.5 0 0 1 312.5,875 62.5,62.5 0 0 1 250,812.5 Z"
         horiz-adv-x="500" />
      <glyph
         glyph-name=""
         unicode="z"
         id="glyph31"
         d="m 0,187.5 v 250 a 264.75425,264.75425 0 0 0 27.95085,118.4017 l 131.5983,263.1966 A 101.12712,101.12712 0 0 0 250,875 101.12712,101.12712 0 0 0 340.45085,819.0983 L 472.04915,555.9017 A 264.75425,264.75425 0 0 0 500,437.5 v -250 A 62.5,62.5 0 0 0 437.5,125 62.5,62.5 0 0 0 375,187.5 v 250 a 264.75425,264.75425 0 0 1 -27.95085,118.4017 l -6.5983,13.1966 A 101.12712,101.12712 0 0 1 250,625 101.12712,101.12712 0 0 1 159.54915,569.0983 l -6.5983,-13.1966 A 264.75425,264.75425 0 0 1 125,437.5 v -250 A 62.5,62.5 0 0 0 62.5,125 62.5,62.5 0 0 0 0,187.5 Z" />
      <glyph
         glyph-name="Space"
         unicode=" "
         id="glyph89" />
      <glyph
         glyph-name=""
         unicode="A"
         id="glyph1"
         d="M 62.5,125 H 125 A 125,125 0 0 1 250,250 V 687.5 A 62.5,62.5 0 0 0 312.5,750 62.5,62.5 0 0 0 375,687.5 62.5,62.5 0 0 1 437.5,625 62.5,62.5 0 0 1 500,687.5 V 750 A 125,125 0 0 1 375,875 H 250 A 125,125 0 0 1 125,750 V 312.5 A 62.5,62.5 0 0 0 62.5,250 62.5,62.5 0 0 1 0,187.5 62.5,62.5 0 0 1 62.5,125 Z" />
      <glyph
         glyph-name=""
         unicode="B"
         id="glyph5"
         d="M 62.5,125 H 500 L 334.44522,566.47943 A 344.66674,344.66674 0 0 0 312.5,687.5 v 125 A 62.5,62.5 0 0 1 250,875 62.5,62.5 0 0 1 187.5,812.5 V 625 A 324.5364,324.5364 0 0 1 210.71192,504.47021 L 289.28808,308.02979 A 42.31456,42.31456 0 0 0 250,250 H 62.5 A 62.5,62.5 0 0 1 0,187.5 62.5,62.5 0 0 1 62.5,125 Z" />
      <glyph
         glyph-name=""
         unicode="C"
         id="glyph6"
         d="M 0,812.5 A 62.5,62.5 0 0 1 62.5,750 62.5,62.5 0 0 1 125,812.5 62.5,62.5 0 0 1 62.5,875 62.5,62.5 0 0 1 0,812.5 Z M 0,625 V 375 a 38.627124,38.627124 0 0 1 55.901699,-34.54915 l 13.196602,6.5983 A 38.627124,38.627124 0 0 0 125,312.5 v -125 A 62.5,62.5 0 0 1 187.5,125 62.5,62.5 0 0 1 250,187.5 V 500 a 38.627124,38.627124 0 0 1 -55.9017,34.54915 l -13.1966,-6.5983 A 38.627124,38.627124 0 0 0 125,562.5 V 625 A 62.5,62.5 0 0 1 62.5,687.5 62.5,62.5 0 0 1 0,625 Z"
         horiz-adv-x="400" />
      <glyph
         glyph-name=""
         unicode="D"
         id="glyph8"
         d="M 0,812.5 A 62.5,62.5 0 0 1 62.5,750 h 375 A 62.5,62.5 0 0 1 500,812.5 62.5,62.5 0 0 1 437.5,875 H 62.5 A 62.5,62.5 0 0 1 0,812.5 Z M 0,625 A 112.76548,112.76548 0 0 1 52.999894,529.37507 L 447.00011,283.12493 A 34.640478,34.640478 0 0 1 500,312.5 112.76548,112.76548 0 0 1 447.00011,408.12493 L 52.999894,654.37507 A 34.640478,34.640478 0 0 1 0,625 Z" />
      <glyph
         glyph-name=""
         unicode="E"
         id="glyph9"
         d="M 62.5,875 A 62.5,62.5 0 0 1 0,812.5 V 250 A 125,125 0 0 1 125,125 H 437.5 A 62.5,62.5 0 0 1 500,187.5 62.5,62.5 0 0 1 437.5,250 h -250 A 62.5,62.5 0 0 0 125,312.5 v 500 A 62.5,62.5 0 0 1 62.5,875 Z m 375,0 A 62.5,62.5 0 0 1 375,812.5 62.5,62.5 0 0 1 437.5,750 62.5,62.5 0 0 1 500,812.5 62.5,62.5 0 0 1 437.5,875 Z" />
      <glyph
         glyph-name=""
         unicode="F"
         id="glyph32"
         d="M 0,812.5 A 62.5,62.5 0 0 1 62.5,750 h 500 A 62.5,62.5 0 0 1 625,812.5 62.5,62.5 0 0 1 562.5,875 H 62.5 A 62.5,62.5 0 0 1 0,812.5 Z M 0,625 A 62.5,62.5 0 0 1 62.5,562.5 62.5,62.5 0 0 1 125,625 62.5,62.5 0 0 1 62.5,687.5 62.5,62.5 0 0 1 0,625 Z m 250,0 A 62.5,62.5 0 0 1 312.5,562.5 62.5,62.5 0 0 1 375,625 62.5,62.5 0 0 1 312.5,687.5 62.5,62.5 0 0 1 250,625 Z m 250,0 A 62.5,62.5 0 0 1 562.5,562.5 62.5,62.5 0 0 1 625,625 62.5,62.5 0 0 1 562.5,687.5 62.5,62.5 0 0 1 500,625 Z"
         horiz-adv-x="800" />
      <glyph
         glyph-name=""
         unicode="G"
         id="glyph33"
         d="m 62.5,625 h 125 a 62.5,62.5 0 0 1 62.5,62.5 v 125 A 62.5,62.5 0 0 0 312.5,875 62.5,62.5 0 0 0 375,812.5 v -625 A 62.5,62.5 0 0 0 312.5,125 62.5,62.5 0 0 0 250,187.5 v 250 A 62.5,62.5 0 0 1 187.5,500 H 62.5 A 62.5,62.5 0 0 0 0,562.5 62.5,62.5 0 0 0 62.5,625 Z"
         horiz-adv-x="500" />
      <glyph
         glyph-name=""
         unicode="H"
         id="glyph34"
         d="M 0,812.5 A 62.5,62.5 0 0 1 62.5,750 h 375 A 62.5,62.5 0 0 1 500,812.5 62.5,62.5 0 0 1 437.5,875 H 62.5 A 62.5,62.5 0 0 1 0,812.5 Z m 0,-250 A 62.5,62.5 0 0 1 62.5,500 H 125 a 62.5,62.5 0 0 0 62.5,-62.5 v -250 A 62.5,62.5 0 0 1 250,125 a 62.5,62.5 0 0 1 62.5,62.5 v 250 A 62.5,62.5 0 0 0 375,500 h 62.5 A 62.5,62.5 0 0 1 500,562.5 62.5,62.5 0 0 1 437.5,625 H 62.5 A 62.5,62.5 0 0 1 0,562.5 Z" />
      <glyph
         glyph-name=""
         unicode="I"
         id="glyph35"
         d="m 0,812.5 v -220 A 62.5,62.5 0 0 1 62.5,530 62.5,62.5 0 0 1 125,592.5 v 220 A 62.5,62.5 0 0 1 62.5,875 62.5,62.5 0 0 1 0,812.5 Z M 0,403 V 187.5 A 62.5,62.5 0 0 1 62.5,125 62.5,62.5 0 0 1 125,187.5 V 403 A 62.5,62.5 0 0 1 62.5,465.5 62.5,62.5 0 0 1 0,403 Z"
         horiz-adv-x="200" />
      <glyph
         glyph-name=""
         unicode="J"
         id="glyph36"
         d="M 62.5,875 A 62.5,62.5 0 0 1 0,812.5 62.5,62.5 0 0 1 62.5,750 62.5,62.5 0 0 1 125,812.5 62.5,62.5 0 0 1 62.5,875 Z m 0,-312.5 A 62.5,62.5 0 0 1 0,500 62.5,62.5 0 0 1 62.5,437.5 62.5,62.5 0 0 1 125,500 62.5,62.5 0 0 1 62.5,562.5 Z M 62.5,250 A 62.5,62.5 0 0 1 0,187.5 62.5,62.5 0 0 1 62.5,125 62.5,62.5 0 0 1 125,187.5 62.5,62.5 0 0 1 62.5,250 Z"
         horiz-adv-x="200" />
      <glyph
         glyph-name=""
         unicode="K"
         id="glyph37"
         d="m 187.5,812.5 v -625 A 62.5,62.5 0 0 1 250,125 a 62.5,62.5 0 0 1 62.5,62.5 v 625 A 62.5,62.5 0 0 1 250,875 62.5,62.5 0 0 1 187.5,812.5 Z M 0,500 A 62.5,62.5 0 0 1 62.5,437.5 62.5,62.5 0 0 1 125,500 62.5,62.5 0 0 1 62.5,562.5 62.5,62.5 0 0 1 0,500 Z m 375,0 A 62.5,62.5 0 0 1 437.5,437.5 62.5,62.5 0 0 1 500,500 62.5,62.5 0 0 1 437.5,562.5 62.5,62.5 0 0 1 375,500 Z" />
      <glyph
         glyph-name=""
         unicode="L"
         id="glyph38"
         d="m 0,812.5 v -625 A 62.5,62.5 0 0 1 62.5,125 62.5,62.5 0 0 1 125,187.5 v 625 A 62.5,62.5 0 0 1 62.5,875 62.5,62.5 0 0 1 0,812.5 Z m 187.5,-125 A 62.5,62.5 0 0 1 250,625 62.5,62.5 0 0 1 312.5,687.5 62.5,62.5 0 0 1 250,750 62.5,62.5 0 0 1 187.5,687.5 Z m 0,-375 A 62.5,62.5 0 0 1 250,250 62.5,62.5 0 0 1 312.5,312.5 62.5,62.5 0 0 1 250,375 62.5,62.5 0 0 1 187.5,312.5 Z"
         horiz-adv-x="400" />
      <glyph
         glyph-name=""
         unicode="M"
         id="glyph39"
         d="M 437.5,875 A 62.5,62.5 0 0 0 500,812.5 V 250 A 125,125 0 0 0 375,125 H 62.5 A 62.5,62.5 0 0 0 0,187.5 62.5,62.5 0 0 0 62.5,250 h 250 a 62.5,62.5 0 0 1 62.5,62.5 v 500 a 62.5,62.5 0 0 0 62.5,62.5 z m -375,0 A 62.5,62.5 0 0 0 125,812.5 62.5,62.5 0 0 0 62.5,750 62.5,62.5 0 0 0 0,812.5 62.5,62.5 0 0 0 62.5,875 Z" />
      <glyph
         glyph-name=""
         unicode="N"
         id="glyph40"
         d="M 0,812.5 A 62.5,62.5 0 0 1 62.5,750 62.5,62.5 0 0 1 125,812.5 62.5,62.5 0 0 1 62.5,875 62.5,62.5 0 0 1 0,812.5 Z m 250,0 v -125 A 470.69555,470.69555 0 0 0 187.98263,453.96961 L 31.008684,179.2652 A 36.270158,36.270158 0 0 1 62.5,125 116.78232,116.78232 0 0 1 159.66876,177.00314 L 270.99371,343.99057 A 619.27043,619.27043 0 0 1 375,687.5 v 125 A 62.5,62.5 0 0 1 312.5,875 62.5,62.5 0 0 1 250,812.5 Z"
         horiz-adv-x="500" />
      <glyph
         glyph-name=""
         unicode="O"
         id="glyph41"
         d="m 62.5,875 h 375 A 62.5,62.5 0 0 0 500,812.5 v -125 A 196.89325,196.89325 0 0 0 463.95329,573.94234 L 195.73515,194.02996 A 163.09397,163.09397 0 0 0 62.5,125 a 31.25,31.25 0 0 0 -25,50 l 300,400 A 187.5,187.5 0 0 1 375,687.5 62.5,62.5 0 0 1 312.5,750 H 62.5 A 62.5,62.5 0 0 0 0,812.5 62.5,62.5 0 0 0 62.5,875 Z" />
      <glyph
         glyph-name=""
         unicode="P"
         id="glyph42"
         d="M 0,812.5 A 62.5,62.5 0 0 1 62.5,750 62.5,62.5 0 0 1 125,812.5 62.5,62.5 0 0 1 62.5,875 62.5,62.5 0 0 1 0,812.5 Z m 250,0 V 375 A 62.5,62.5 0 0 1 312.5,312.5 62.5,62.5 0 0 1 375,375 V 812.5 A 62.5,62.5 0 0 1 312.5,875 62.5,62.5 0 0 1 250,812.5 Z M 0,625 V 187.5 A 62.5,62.5 0 0 1 62.5,125 62.5,62.5 0 0 1 125,187.5 V 625 A 62.5,62.5 0 0 1 62.5,687.5 62.5,62.5 0 0 1 0,625 Z M 250,187.5 A 62.5,62.5 0 0 1 312.5,125 62.5,62.5 0 0 1 375,187.5 62.5,62.5 0 0 1 312.5,250 62.5,62.5 0 0 1 250,187.5 Z"
         horiz-adv-x="500" />
      <glyph
         glyph-name=""
         unicode="Q"
         id="glyph43"
         d="M 250,812.5 A 62.5,62.5 0 0 1 312.5,750 62.5,62.5 0 0 1 375,812.5 62.5,62.5 0 0 1 312.5,875 62.5,62.5 0 0 1 250,812.5 Z M 0,562.5 A 62.5,62.5 0 0 1 62.5,500 h 375 A 62.5,62.5 0 0 0 500,437.5 v -125 A 62.5,62.5 0 0 0 437.5,250 H 62.5 A 62.5,62.5 0 0 1 0,187.5 62.5,62.5 0 0 1 62.5,125 H 500 A 125,125 0 0 1 625,250 V 500 A 125,125 0 0 1 500,625 H 62.5 A 62.5,62.5 0 0 1 0,562.5 Z"
         horiz-adv-x="750" />
      <glyph
         glyph-name=""
         unicode="R"
         id="glyph44"
         d="M 0,812.5 A 62.5,62.5 0 0 1 62.5,750 62.5,62.5 0 0 1 125,812.5 62.5,62.5 0 0 1 62.5,875 62.5,62.5 0 0 1 0,812.5 Z m 562.5,0 A 62.5,62.5 0 0 1 625,750 62.5,62.5 0 0 1 687.5,812.5 62.5,62.5 0 0 1 625,875 62.5,62.5 0 0 1 562.5,812.5 Z M 0,187.5 A 62.5,62.5 0 0 1 62.5,125 62.5,62.5 0 0 1 125,187.5 62.5,62.5 0 0 1 62.5,250 62.5,62.5 0 0 1 0,187.5 Z m 562.5,0 A 62.5,62.5 0 0 1 625,125 62.5,62.5 0 0 1 687.5,187.5 62.5,62.5 0 0 1 625,250 62.5,62.5 0 0 1 562.5,187.5 Z"
         horiz-adv-x="800" />
      <glyph
         glyph-name=""
         unicode="S"
         id="glyph45"
         d="M 0,812.5 V 500 A 125,125 0 0 1 125,375 h 62.5 A 62.5,62.5 0 0 0 250,312.5 v -125 A 62.5,62.5 0 0 1 312.5,125 62.5,62.5 0 0 1 375,187.5 V 375 A 125,125 0 0 1 250,500 H 187.5 A 62.5,62.5 0 0 0 125,562.5 v 250 A 62.5,62.5 0 0 1 62.5,875 62.5,62.5 0 0 1 0,812.5 Z"
         horiz-adv-x="500" />
      <glyph
         glyph-name=""
         unicode="T"
         id="glyph46"
         d="M 0,812.5 A 62.5,62.5 0 0 1 62.5,750 h 250 A 62.5,62.5 0 0 0 375,687.5 V 375 A 62.5,62.5 0 0 1 437.5,312.5 62.5,62.5 0 0 1 500,375 V 750 A 125,125 0 0 1 375,875 H 62.5 A 62.5,62.5 0 0 1 0,812.5 Z m 375,-625 A 62.5,62.5 0 0 1 437.5,125 62.5,62.5 0 0 1 500,187.5 62.5,62.5 0 0 1 437.5,250 62.5,62.5 0 0 1 375,187.5 Z" />
      <glyph
         glyph-name=""
         unicode="U"
         id="glyph47"
         d="m 62.5,312.5 h 500 A 62.5,62.5 0 0 1 625,375 62.5,62.5 0 0 1 562.5,437.5 H 62.5 A 62.5,62.5 0 0 1 0,375 62.5,62.5 0 0 1 62.5,312.5 Z M 187.5,500 A 62.5,62.5 0 0 1 250,562.5 62.5,62.5 0 0 1 187.5,625 62.5,62.5 0 0 1 125,562.5 62.5,62.5 0 0 1 187.5,500 Z m 250,0 A 62.5,62.5 0 0 1 500,562.5 62.5,62.5 0 0 1 437.5,625 62.5,62.5 0 0 1 375,562.5 62.5,62.5 0 0 1 437.5,500 Z"
         horiz-adv-x="750" />
      <glyph
         glyph-name=""
         unicode="V"
         id="glyph48"
         d="M 0,187.5 A 62.5,62.5 0 0 1 62.5,125 h 375 A 62.5,62.5 0 0 1 500,187.5 62.5,62.5 0 0 1 437.5,250 H 62.5 A 62.5,62.5 0 0 1 0,187.5 Z m 0,250 A 62.5,62.5 0 0 0 62.5,500 H 125 a 62.5,62.5 0 0 1 62.5,62.5 v 250 A 62.5,62.5 0 0 0 250,875 62.5,62.5 0 0 0 312.5,812.5 v -250 A 62.5,62.5 0 0 1 375,500 h 62.5 A 62.5,62.5 0 0 0 500,437.5 62.5,62.5 0 0 0 437.5,375 H 62.5 A 62.5,62.5 0 0 0 0,437.5 Z" />
      <glyph
         glyph-name=""
         unicode="W"
         id="glyph49"
         d="M 187.5,375 A 62.5,62.5 0 0 1 250,312.5 62.5,62.5 0 0 1 312.5,375 62.5,62.5 0 0 1 250,437.5 62.5,62.5 0 0 1 187.5,375 Z M 0,187.5 A 62.5,62.5 0 0 1 62.5,125 62.5,62.5 0 0 1 125,187.5 62.5,62.5 0 0 1 62.5,250 62.5,62.5 0 0 1 0,187.5 Z m 375,0 A 62.5,62.5 0 0 1 437.5,125 62.5,62.5 0 0 1 500,187.5 62.5,62.5 0 0 1 437.5,250 62.5,62.5 0 0 1 375,187.5 Z" />
      <glyph
         glyph-name=""
         unicode="X"
         id="glyph50"
         d="M 0,812.5 A 62.5,62.5 0 0 1 62.5,750 62.5,62.5 0 0 1 125,812.5 62.5,62.5 0 0 1 62.5,875 62.5,62.5 0 0 1 0,812.5 Z M 347.04915,819.0983 27.95085,180.9017 A 38.627124,38.627124 0 0 1 62.5,125 a 101.12712,101.12712 0 0 1 90.45085,55.9017 l 319.0983,638.1966 A 38.627124,38.627124 0 0 1 437.5,875 101.12712,101.12712 0 0 1 347.04915,819.0983 Z" />
      <glyph
         glyph-name=""
         unicode="Y"
         id="glyph51"
         d="m 0,812.5 v -625 A 62.5,62.5 0 0 1 62.5,125 62.5,62.5 0 0 1 125,187.5 v 625 A 62.5,62.5 0 0 1 62.5,875 62.5,62.5 0 0 1 0,812.5 Z m 250,0 v -625 A 62.5,62.5 0 0 1 312.5,125 62.5,62.5 0 0 1 375,187.5 v 625 A 62.5,62.5 0 0 1 312.5,875 62.5,62.5 0 0 1 250,812.5 Z"
         horiz-adv-x="500" />
      <glyph
         glyph-name=""
         unicode="Z"
         id="glyph52"
         d="m 0,187.5 v 250 a 264.75425,264.75425 0 0 0 27.95085,118.4017 l 131.5983,263.1966 A 101.12712,101.12712 0 0 0 250,875 101.12712,101.12712 0 0 0 340.45085,819.0983 L 472.04915,555.9017 A 264.75425,264.75425 0 0 0 500,437.5 v -250 A 62.5,62.5 0 0 0 437.5,125 62.5,62.5 0 0 0 375,187.5 v 250 a 264.75425,264.75425 0 0 1 -27.95085,118.4017 l -6.5983,13.1966 A 101.12712,101.12712 0 0 1 250,625 101.12712,101.12712 0 0 1 159.54915,569.0983 l -6.5983,-13.1966 A 264.75425,264.75425 0 0 1 125,437.5 v -250 A 62.5,62.5 0 0 0 62.5,125 62.5,62.5 0 0 0 0,187.5 Z" />
      <glyph
         glyph-name=""
         unicode="0"
         id="glyph109"
         d="M 125,375 V 625 A 125,125 0 0 0 250,750 125,125 0 0 0 375,625 V 375 A 125,125 0 0 0 250,250 125,125 0 0 0 125,375 Z M 0,625 V 375 A 250,250 0 0 1 250,125 250,250 0 0 1 500,375 V 625 A 250,250 0 0 1 250,875 250,250 0 0 1 0,625 Z" />
      <glyph
         glyph-name=""
         unicode="1"
         id="glyph111"
         d="M 55.901699,777.95085 194.0983,847.04915 A 264.75425,264.75425 0 0 0 312.5,875 62.5,62.5 0 0 0 375,812.5 v -625 A 62.5,62.5 0 0 0 312.5,125 62.5,62.5 0 0 0 250,187.5 v 500 a 38.627124,38.627124 0 0 1 -55.9017,34.54915 L 55.901699,652.95085 A 38.627124,38.627124 0 0 0 0,687.5 101.12712,101.12712 0 0 0 55.901699,777.95085 Z"
         horiz-adv-x="500" />
      <glyph
         glyph-name=""
         unicode="2"
         id="glyph112"
         d="M 250,875 C 388.59649,871.3994 552.99708,723.67794 463.32554,625 431.58455,589.82866 92.090195,261.23106 187.5,250 h 250 C 472.0178,250 500,222.0178 500,187.5 500,152.9822 472.0178,125 437.5,125 H 62.5 C 27.982203,125 0,152.9822 0,187.5 0,227.83113 14.427312,266.83186 40.674461,297.45354 L 334.32554,640.04646 C 398.75105,715.20956 332.80956,764.20787 250,750 166.62988,747.1765 137.78098,675.42148 97.168762,614.50314 72.265138,595.21416 0,562.5 0,625 0,772.18496 170.2557,871.84024 250,875 Z" />
      <glyph
         glyph-name=""
         unicode="3"
         id="glyph113"
         d="M 500,707.44128 C 498.23765,612.88041 430.52457,561.08613 375,499.51172 432.01884,433.47989 496.45073,390.91653 500,291.58216 425.68433,6.93143 -4.2070821e-6,142.06875 0,291.58216 c 1.461246e-8,31.8434 30.218482,52.55435 55.901699,38.31355 L 186.52,257.47064 c 40.38558,-22.39295 87.46936,-24.60788 129.41995,-6.08821 134.13053,48.20084 -22.05845,170.50821 -71.59509,227.57264 -9.94031,11.45088 -9.87293,29.58991 0.1521,40.94958 55.59076,69.79882 206.02024,168.22858 71.61117,228.20933 -42.08927,18.23249 -89.17212,15.84866 -129.58813,-6.56116 L 55.901699,669.12773 C 30.218482,654.88693 1.4612528e-8,675.59788 0,707.44128 c -4.574455e-6,162.5693 437.99353,277.03753 500,0 z" />
      <glyph
         glyph-name=""
         unicode="4"
         id="glyph114"
         d="M 125,375 312.5,687.5 V 375 Z M 437.5,187.5 V 250 A 62.5,62.5 0 0 1 500,312.5 62.5,62.5 0 0 1 437.5,375 V 812.5 A 62.5,62.5 0 0 1 375,875 119.15802,119.15802 0 0 1 275.46407,814.55736 L 27.429362,409.76472 A 186.16538,186.16538 0 0 1 0,312.5 62.5,62.5 0 0 1 62.5,250 h 250 V 187.5 A 62.5,62.5 0 0 1 375,125 a 62.5,62.5 0 0 1 62.5,62.5 z" />
      <glyph
         glyph-name=""
         unicode="5"
         id="glyph115"
         d="M 500,875 H 0 V 437.5 C 94.261916,519.53593 187.5,500 250,500 312.5,500 375,437.5 375,375 375,312.5 312.5,250 250,250 187.5,250 24.788421,277.79621 0,312.5 v -125 c 0,0 125,-62.5 250,-62.5 125,0 250,125 250,250 0,125 -125,250 -250,250 -125,0 -120.93414,-18.99406 -125,-16.97056 V 750 h 375 z" />
      <glyph
         glyph-name=""
         unicode="6"
         id="glyph116"
         d="M 312.5,875 C 277.9822,875 237.44002,847.60147 217.33984,819.54297 149.60816,724.99413 50.41891,630.46334 12.648438,453.50586 4.4830806,428.8083 0,402.43488 0,375 0,236.92881 111.92881,125 250,125 c 138.07119,0 250,111.92881 250,250 0,138.07119 -111.92881,250 -250,250 -23.25782,0 -30.1888,-0.59203 -51.55303,-6.5339 46.85216,95.18799 97.60309,108.92436 148.54912,200.68234 C 363.74621,849.31677 347.01836,875 312.5,875 Z M 250,500 c 69.03559,0 125,-56.85688 125,-125 0,-69.03559 -55.96441,-125 -125,-125 -69.03559,0 -125,55.96441 -125,125 0,71.67866 55.96441,125 125,125 z" />
      <glyph
         glyph-name=""
         unicode="7"
         id="glyph117"
         d="m 62.5,125 a 110.3869,110.3869 0 0 1 94.65598,53.59331 L 467.84402,696.40669 A 225.64483,225.64483 0 0 1 500,812.5 62.5,62.5 0 0 1 437.5,875 H 62.5 A 62.5,62.5 0 0 1 0,812.5 62.5,62.5 0 0 1 62.5,750 h 250 a 35.386899,35.386899 0 0 0 30.34402,-53.59331 L 32.155985,178.59331 A 35.386899,35.386899 0 0 1 62.5,125 Z" />
      <glyph
         glyph-name=""
         unicode="8"
         id="glyph118"
         d="M 375,375 A 125,125 0 0 0 250,250 125,125 0 0 0 125,375 125,125 0 0 0 250,500 125,125 0 0 0 375,375 Z M 312.5,687.5 A 62.5,62.5 0 0 0 250,625 62.5,62.5 0 0 0 187.5,687.5 62.5,62.5 0 0 0 250,750 62.5,62.5 0 0 0 312.5,687.5 Z M 250,875 A 187.5,187.5 0 0 1 62.5,687.5 187.5,187.5 0 0 1 100.76367,574.77539 250,250 0 0 1 0,375 250,250 0 0 1 250,125 250,250 0 0 1 500,375 250,250 0 0 1 399.60742,575.27148 187.5,187.5 0 0 1 437.5,687.5 187.5,187.5 0 0 1 250,875 Z" />
      <glyph
         glyph-name=""
         unicode="9"
         id="glyph119"
         d="m 187.5,125 c 34.5178,0 75.05998,27.39853 95.16016,55.45703 67.73168,94.54884 166.92093,189.07963 204.6914,366.03711 C 495.51692,571.1917 500,597.56512 500,625 500,763.07119 388.07119,875 250,875 111.92881,875 0,763.07119 0,625 0,486.92881 111.92881,375 250,375 c 23.25782,0 30.1888,0.59203 51.55303,6.5339 C 254.70087,286.34591 203.94994,272.60954 153.00391,180.85156 136.25379,150.68323 152.98164,125 187.5,125 Z M 250,500 c -69.03559,0 -125,56.85688 -125,125 0,69.03559 55.96441,125 125,125 69.03559,0 125,-55.96441 125,-125 0,-71.67866 -55.96441,-125 -125,-125 z" />
    </font>
</defs>
</svg>
